<svg xmlns="http://www.w3.org/2000/svg" viewBox="0 0 24 24" fill="currentColor"><path d="M12 3C7.58 3 4 4.79 4 7v10c0 2.21 3.59 4 8 4s8-1.79 8-4V7c0-2.21-3.58-4-8-4zm0 2c3.31 0 6 .9 6 2s-2.69 2-6 2-6-.9-6-2 .9-2 2.7-2 6-2zm0 14c-3.31 0-6-.9-6-2v-2.05c1.26.88 3.11 1.45 5.22 1.66.91.09 1.78.13 2.78.13s1.87-.04 2.78-.13c2.11-.21 3.96-.78 5.22-1.66V17c0 1.1-2.69 2-6 2zm0-6c-3.31 0-6-.9-6-2v-2.05c1.26.88 3.11 1.45 5.22 1.66.91.09 1.78.13 2.78.13s1.87-.04 2.78-.13c2.11-.21 3.96-.78 5.22-1.66V11c0 1.1-2.69 2-6 2z"/></svg>
